# xmcd
#
# Track frame offsets: 
#        150
#        25467
#        53744
#        86058
#        110131
#
# Disc length: 1954 seconds
#
# Revision: 0
# Processed by: cddbd v1.5.1PL0 Copyright (c) Steve Scherf et al.
# Submitted via: ExactAudioCopy v0.95a5
#
DISCID=3f07a005
DTITLE=Ex Caminos - Live at the Knitting Factory
DYEAR=2004
DGENRE=Blues
TTITLE0=Dr. Feelgood
TTITLE1=Host
TTITLE2=Camino
TTITLE3=Mama Wailer
TTITLE4=Chilimac
EXTD=
EXTT0=
EXTT1=
EXTT2=
EXTT3=
EXTT4=
PLAYORDER=
